<svg xmlns="http://www.w3.org/2000/svg" created-by='Rajaniraiyn' viewBox="0 0 626 403"><g fill="#fefefe"><path d="M338 153c10-10 25-14 39-10a40 40 0 0124 58 40 40 0 01-54 16 40 40 0 01-10-63l7 7a30 30 0 0025 51c14-2 26-14 27-28a30 30 0 00-51-24l-7-7z"/><path d="M353 168c5-4 10-6 16-5 9 2 16 11 15 20a19 19 0 01-37-1c0-5 2-10 5-14l8 8c-1 2-3 6-1 9 1 5 9 6 12 2 4-3 3-10-2-12-2-2-5-1-8 0l-8-7zM278 165l8 1c-2 3-7 3-8-1zM520 169h8c-1 3-6 4-8 0z"/></g><path fill="#e2e8fe" d="M299 190l15-10c0 9 3 19 7 28 0 2 0 4-2 6l-17-1-3-23z"/><g fill="#d0dafe"><path d="M319 21c5-2 10 1 14 4 5 6 6 15 4 23-1 6-5 12-11 14-2 0-3 2-4 4-2 3-1 7-1 11-2-5 0-10-1-15-7-1-11-7-13-13-3-10 1-24 12-28zM454 55c4-2 10-2 14 0 6 4 9 11 9 17 2 10-4 21-14 24l-3 6-1-7c-3-1-6-2-8-5-5-5-6-13-5-20 0-6 4-11 8-15zM181 62h6c6 1 9 6 11 10s2 9 2 13c0 9-6 17-14 19-3 5-2 11-2 16-2-5-1-10-1-15-6-3-11-7-13-13s-2-12 0-18c2-5 5-10 11-12zM223 103c2-6 8-12 15-10 4 0 7 3 9 6 5 5 5 12 5 19-1 7-6 16-14 17l-2 4c-2 0-1-3-2-4-7-2-12-9-13-16-1-5 0-11 2-16zM587 167c4-2 9-1 12 2 10 7 11 23 4 32-3 4-6 7-11 7v4h-2v-3c-5-3-10-5-12-10-3-6-3-14-1-21 1-5 5-9 10-11zM25 212c3-4 8-6 13-5 5 2 10 7 11 13 4 9 1 20-6 26-2 2-4 3-7 3-3 5-2 10-2 15-2-5-1-10-1-14l-7-4c-5-4-7-12-7-19 0-6 2-11 6-15z"/></g><path fill="#d0d9fd" d="M372 76l4 3h6l-2 4 2 6-4-1-5 4-2-6-5-1 5-3 1-6z"/><g fill="#cfd9fd"><path d="M65 104l3 4h5c1 2 0 4-1 6l1 5-6-1-4 3v-6l-3-2-1-1c3-2 5-5 6-8zM537 104l1 6 6 3-3 1h-2v7l-6-4-5 2 2-6-2-5c3 0 6 1 8-2l1-2zM205 248l1-5c2 0 2 2 3 3h7l-3 6 2 4h-6l-4 3-1-6-4-3 5-2zM545 285c2 0 4 1 5 3l6-1-2 5c0 2 2 3 3 4l-1 2c-4-3-9-5-15-5l1-2h3v-6z"/></g><g fill="#484b7e"><path d="M117 108c0-2 2-2 3-3v6l-3-3zM457 245c6-2 12-1 17-1l-1 2-2 48c5 15 6 31 7 47v3l-13-2v-3l-12-42-6-25-4-26c5 1 10 0 14-1zM177 257c-2 0-6-4-2-4l2 4z"/></g><g fill="#3e9450"><path d="M295 109l8 7 1 6c-4-3-6-7-10-9l9 9h-4l-9-8 5-5zM299 224l5-1-1 1v3l-3 2h-1v-5z"/></g><path fill="#484c7f" d="M121 111l4 3c11 7 22 14 32 23 8 9 16 18 20 29-2 4 0 10 5 12 4 22-3 44-6 65-1 3-1 7-3 9l4-43c1-10 1-21-1-31l-3-9-3 1-11 4h-1l12-6c3 0 4-2 5-4l-5 1c-2-8-7-13-12-19-9-10-19-19-30-28-2-2-6-4-7-7z"/><g fill="#2c2958"><path d="M294 113c4 2 6 6 10 9l25 23 9 8 7 7 8 8 8 7 3 3h-1l-3-2-8-8-8-7a266 266 0 00-15-15l-26-24-9-9zM506 145c0-5 4-11 10-11 5 0 9 4 13 6 5 2 10-1 14 1 4 1 8 5 8 10-1 5-5 10-4 15s6 6 10 9l-13 4c-4 2-9 2-14 2v-6c2-3 5-5 6-9l3-1c1-2 3-4 1-6l-8-1c-4-2-8-5-10-8l-9 9c-1 6 3 12 8 16v7h-1c-7 0-13-2-20-5-1-2-3-4-2-7 2-5 6-7 9-11 0-5-2-9-1-14zM204 153l9-2-7 6v-2l-27 11-2-1 28-11-1-1zM429 174l12-2c-1 9 14 9 14 1h3l-4 10-7 23c-1 2-2 5-4 4l-15-3h1v-14h-1c2-6 1-12 1-19zM134 184l24-10h1l-24 10-15 7 1-2 13-5zM457 219c7-8 12-18 17-27 1 17 4 35 0 52-5 0-11-1-17 1-4 1-9 2-14 1-4-1-7-3-10-6l-2-3-1-17 14 4c5 0 10-1 13-5zM107 241l11-2 15 34c2 7 5 15 5 23 0 15-4 30-4 45l-1 11h-16l-1-13c0-14 0-29 3-43-7-9-13-20-19-30l7-25z"/></g><g fill="#16142a"><path d="M86 133c0-5 6-9 10-7 3 1 7 0 10-1 2 0 3 2 4 3 2 1 4 0 6 2 3 2 2 6 2 9-1 6 0 12-3 18l1-7-6-1h5v-3h-7l-4-3-8 2c-2 2-3 5-6 6-2-1-5-1-7 2l-2-4 2-5-1-7c0-2 3-3 4-4zM251 141c3-6 11-8 18-6-4 3-8 5-10 9-1 3-2 6-1 9 0 2 2 4 3 5l1 6 4 1 1 3 3 8-5 3-2 2c-3 2-6 3-6 7-1 8 5 15 7 22l1 5c-3 3-7 5-12 6-3 0-6-1-7-4-3-4-1-10-3-15-4-1-8-1-10-4-7-9-7-23 1-31 5-4 12-2 15-7 4-6-2-13 2-19z"/><path d="M98 151c1-2 3-2 5-2l-1 2c2 0 3 3 1 3-3 1-2-3-1-4l-4 1zM443 150c2 0 4 3 1 3-1 1-2-2-1-3zM111 154c0-2 1-4 3-3 1 2-1 3-3 3zM433 151c0-1 3 0 2 2-1 1-4 0-2-2zM276 157c1-1 1-2 3-2 1 1 0 3-1 3l-2-1zM517 159c1-2 3-2 5-1l-4 1c1 1 4 2 3 4-3 0-3-3-4-4zM528 158l5 1c-1 1-3 5-5 2l4-2h-4v-1z"/></g><path fill="#ef8e6b" d="M376 129c5 1 11 1 12 6-4 0-9-1-12-4v-2z"/><path fill="#181b48" d="M435 132c6-3 13-1 19-3l-1 4c3 1 6 3 7 7v9l-4 2c-2-3-3-7-6-9-4-2-8 1-12 1l-4-2-4 7v-8l3-4 2-4z"/><path fill="#e52551" d="M352 132c8-2 16-2 24-1 3 3 8 4 12 4a52 52 0 0129 53l-2 10-4 5-10-2a40 40 0 00-63-47l-9-9 10-7c5 0 9-3 13-6z"/><path fill="#f3936f" d="M339 135l10-4 3 1c-4 3-8 6-13 6v-3z"/><g fill="#dd613b"><path d="M477 136c0-2 1-4 3-5v13l-6 2-2-1 5-9zM170 165l5-1c-1 2-2 4-5 4v-3zM267 168c4 3 8 6 13 5a134 134 0 002 5c-1 2 0 4-2 5l-6-1-4-6-3-8zM521 175h8c0 2 1 5-1 6h-7v-6z"/></g><path fill="#de613b" d="M572 131c3 0 2 3 4 5l5 8-3 2-6-3v-12z"/><path fill="#211d40" d="M269 135l1 1c4-1 8-2 12 0l4 5c2 2 5 3 6 6 1 2 0 4-1 6h-1c-1 2 0 4-2 5-3 0 0-3-1-5h3c-4-2-9-3-13-3l-3 2 2 1h4l-6 2v-1l-6 5c-2-1-4-2-7-1-1-1-3-3-3-5-1-3 0-6 1-9 2-4 6-6 10-9z"/><path fill="#f4794d" d="M472 135l5 1-5 9c-5-2-3-8 0-10z"/><path fill="#f37c4e" d="M576 136l4-2c3 2 5 8 1 10l-5-8z"/><path fill="#16172c" d="M119 137c2 2 4 4 4 7l-5 4 1-11z"/><g fill="#f2784f"><path d="M430 148l4-7 4 2c4 0 8-3 12-1 3 2 4 6 6 9l4-2c1 2 3 3 2 5 0 3-3 4-6 3h-1c-1 3-2 5-5 5-1-1-2-3-4-2h-14l-2-5v-7m2 1h4c0-2-5-2-4 0m10 0h3l3 1c0-3-4-4-6-1m1 1c-1 1 0 4 1 3 3 0 1-3-1-3m-10 1c-2 2 1 3 2 2 1-2-2-3-2-2zM508 283l14 1-2 11c3 4 5 9 5 14l2 36v1h-4l-4-4-10-36c-1-8-2-16-1-23z"/></g><g fill="#f2794f"><path d="M96 145l8-2 4 3h7v3h-5l6 1-1 7c0 3-1 7-4 9l-7 4-9-4-5-6v-1c-4-1-6-3-7-6 2-3 5-3 7-2 3-1 4-4 6-6m2 6l4-1c-1 1-2 5 1 4 2 0 1-3-1-3l1-2c-2 0-4 0-5 2m13 3c2 0 4-1 3-3-2-1-3 1-3 3m-10 7c2 4 8 4 10 1l-10-1zM274 152l3-2c4 0 9 1 13 3h-3c1 2-2 5 1 5 2-1 1-3 2-5h1c0 4 0 9-3 13-1 4-5 6-8 7-5 1-9-2-13-5l-1-3-4-1-1-6c3-1 5 0 7 1l6-5v1l6-2h-4l-2-1m2 5l2 1c1 0 2-2 1-3-2 0-2 1-3 2m2 8c1 4 6 4 8 1l-8-1zM411 203l4-5c0 2-1 6 2 7l-2 8-7-1-7-2v-9l10 2zM526 284l17-3-1 10-1 2c6 0 11 2 15 5 7 6 14 13 23 16l-2 4-4 2c-15-5-30-12-43-21-3-4-3-10-4-15z"/></g><g fill="#e62552"><path d="M474 146l6-2 9 30 11 3c7 3 13 5 20 5l-4 45-1 7a46 46 0 01-11-2l4-37c-9-2-16-6-23-11-4-2-7-5-8-10-4-9-4-19-3-28zM565 166l7-23 6 3 1 5c0 9-1 19-6 27-4 5-9 8-15 11-4 3-9 5-14 6a372 372 0 005 37l-6 1-8 1v-7l-5-45v-1c5 0 10 0 14-2a229 229 0 0119-5l2-8zM329 146l8 8c-7 8-12 18-11 29a40 40 0 0075 18v9l7 2a51 51 0 01-79 5l5-4-3-7-7 4-3-2c-4-9-7-19-7-28l4-18c3-6 6-11 11-16z"/><path d="M345 160c8-8 21-10 31-6a30 30 0 01-7 57c-14 2-29-8-32-22-3-10 0-21 7-28l8 7c-3 4-5 9-5 14a19 19 0 1022-19c-6-1-11 1-16 5l-8-8zM75 174l13-2c4 5 12 6 18 3l-1-3 11 2-1 16c-3-1-5 0-7 1l-15 6 3 2-21 7v-9c1-6 3-13 2-19l-2-4zM107 204c4-3 9-1 13-3l-2 38-11 2c-11 1-22 1-33-1h-1l1-18c7-2 14-4 20-8 5-2 10-5 13-10z"/></g><g fill="#191a48"><path d="M432 149c-1-2 4-2 4 0h-4zM442 149c2-3 6-2 6 1l-3-1h-3zM441 172c-8-1-11-10-11-17l2 5h14c2-1 3 1 4 2 3 0 4-2 5-5h1l-2 8c-3 4-8 7-13 7m-4-10c1 4 6 3 8 0h-8z"/></g><path fill="#f2794e" d="M513 159l9-9c2 3 6 6 10 8l8 1c2 2 0 4-1 6l-3 1c-1 4-4 6-6 9v7h-9v-1h7c2-1 1-4 1-6h-8c-5-4-9-10-8-16m4 0c1 1 1 4 4 4 1-2-2-3-3-4l4-1c-2-1-4-1-5 1m11-1v1h4l-4 2c2 3 4-1 5-2l-5-1m-8 11c2 4 7 3 8 0h-8z"/><path fill="#de623b" d="M90 160l5 6 9 4v2c-2 1-3 3-6 3l-8-3v-12z"/><path fill="#f8fdf0" d="M101 161l10 1c-2 3-8 3-10-1z"/><g fill="#0e6a41"><path d="M288 176l30-14-4 18-15 10-11-14zM257 188c0-4 3-5 6-7 4 1 7 5 8 9 3 6 7 11 11 15l4 5-7 14-10-9c-1-2-2-4-5-5-2-7-8-14-7-22z"/></g><path fill="#fffbf3" d="M437 162h8c-2 3-7 4-8 0z"/><path fill="#f7794c" d="M182 178c-5-2-7-8-5-12v-1l2 1 3 12z"/><path fill="#de623c" d="M441 172c5 0 10-3 13-7l1 8c0 8-15 8-14-1z"/><path fill="#30347f" d="M415 166l14 8c0 7 1 13-1 19l-11-5c1-7 0-14-2-22z"/><path fill="#dd6448" d="M170 170l3-1 3 9-2 1-5-7 1-2z"/><path fill="#e5e8ff" d="M159 174l11-4-1 2c-10 4-19 10-27 18l-7-6 24-10z"/><path fill="#31357f" d="M458 173c6-3 13 0 17 4 2 5 0 10-1 15-5 9-10 19-17 27-3 4-8 5-13 5a56 56 0 01-29-11l2-8 11 2 15 3c2 1 3-2 4-4l7-23 4-10z"/><path fill="#c92549" d="M88 172h2l8 3c3 0 4-2 6-3h1l1 3c-6 3-14 2-18-3z"/><g fill="#c5204a"><path d="M142 190c8-8 17-14 27-18l5 7c-6 8-13 15-21 22l-7 4-16-3-8-4c-2-2-3-5-2-7l15-7 7 6zM60 189c4-6 8-12 15-15l2 4c1 6-1 13-2 19l-4 10 4-1 21-7 8-1 3 6c-3 5-8 8-13 10-6 4-13 6-20 8-5 1-10 2-15 0-3 0-4-3-4-6-1-9 1-18 5-27zM119 174l15 10-13 5-1-1-1-14z"/></g><path fill="#da2c4f" d="M117 174h2l1 14-3 4-1-1c-1-6 1-11 1-17z"/><path fill="#e62451" d="M361 175c3-1 6-2 8 0 5 2 6 9 2 12-3 4-11 3-12-2-2-3 0-7 1-9l3 2-2 2 7 3-3-8-1 3-3-3z"/><path fill="#1c7347" d="M281 175l6 2c1 2 4 5 2 8l-7-7-1-3z"/><g fill="#494c7f"><path d="M364 178l1-3 3 8-7-3 2-2h1zM74 240c11 2 22 2 33 1l-7 25-11 32-14 47-1 5-2 1H61l-1 3v-6c2-18 3-38 11-55v-10l3-43z"/></g><path fill="#0f6b40" d="M270 176l4 6 2 4v2c-5-1-7-6-11-9l5-3z"/><path fill="#3e964e" d="M287 177l1-1 11 14 3 23h-4c-1-10-1-21-9-28 2-3-1-6-2-8z"/><path fill="#80bd48" d="M282 178l7 7c8 7 8 18 9 28h-8l-4-3-4-5c0-7-3-13-6-19l-2-4 6 1c2-1 1-3 2-5z"/><path fill="#3e954f" d="M263 181l2-2c4 3 6 8 11 9v-2c3 6 6 12 6 19-4-4-8-9-11-15-1-4-4-8-8-9z"/><path fill="#f596ae" d="M520 182h10l5 45h-19l4-45z"/><g fill="#f3794f"><path d="M117 192l3-4 1 1-1 2c-1 2 0 5 2 7l-2 3c-4 2-9 0-13 3l-3-6c3-1 4-4 4-7 2-1 4-2 7-1l1 1-3 2 4-1zM324 210l7-4 3 7-5 4a128 128 0 01-40 7v-1l1-10h12l17 1c2-2 2-4 2-6l3 2z"/></g><g fill="#e3e9fe"><path d="M417 188l11 5h1v14h-1l-11-2c-3-1-2-5-2-7l2-10zM71 207l4-10v9l-4 1z"/></g><path fill="#2c2858" d="M544 195c5-1 10-3 14-6l-5 8c-1 3 2 6 0 9-1 3-4 4-7 5v1l-2-17z"/><path fill="#7b3e56" d="M116 191l1 1-4 1 3-2z"/><path fill="#171e27" d="M93 197l15-6c0 3-1 6-4 7l-8 1-3-2z"/><path fill="#3f964f" d="M264 210c3 1 4 3 5 5l10 9c2 2 6 2 9 4l2 5c-8 4-17 5-26 3 1-7 2-14 1-21l-1-5z"/><path fill="#46a859" d="M286 210l4 3-1 10-1 5c-3-2-7-2-9-4l7-14z"/><path fill="#81bd46" d="M288 228l1-5v1h10v5c-2 2-4 2-7 3l-2 1-2-5z"/><g fill="#080635"><path d="M516 227h19v7l8-1c6 15 6 32 8 48h-8l-17 3h-4a60 60 0 01-23-5c2-4 3-9 3-14 1-11 2-22 6-32l7 1 1-7zM120 352h13l12 3c2 2 2 4 2 6h-28l1-9z"/></g><g fill="#4364cd"><path d="M299 229h1c6 20 12 39 16 59 5 16 7 33 10 49l1 5-11 1-3-8c-5-11-11-23-13-36 0-4 2-8 0-12l-13-25v-6l5-24c3-1 5-1 7-3zM577 318l2-4 7 4c-4 6-7 14-12 20l-2-5c1-4 2-9 1-13l4-2z"/></g><path fill="#748ed9" d="M290 233l2-1a435 435 0 01-5 30c-2 2-2 5-3 7-2 10-7 20-8 31a317 317 0 01-10 43h-13v-6c1-12 2-25 6-37 1-4 3-7 3-11v-39l2-14c9 2 18 1 26-3z"/><g fill="#3c3f74"><path d="M419 274c4-12 8-23 14-34 3 3 6 5 10 6l4 26-14 20c-2 3-1 7-1 10 1 12-1 25-2 37l-1 6-13-3v-4l-2-43c0-7 2-15 5-21zM253 343h13l13 4c2 1 2 4 3 6h-30l1-10z"/></g><path fill="#f0f4ff" d="M236 265c6-1 12 7 7 11-3 4-10 4-12-1-1-4 1-8 5-10z"/><path fill="#d0d9fe" d="M356 303l5-4 2 5 4 2-5 4-1 5-4-3-5 1 2-6-3-5 5 1z"/><path fill="#b1c1f2" d="M266 343l3-8v1h31c4 0 9 1 13-1l3 8-1 10 25 1 4-1c1-3-1-5-4-6-4-2-9-2-13-5l-1-5h32l58 1v4l-14 5c-2 1-3 4-3 6h30v-8l1-6h35v3l-13 5c-3 1-3 4-4 6h31l-1-9v-3c14 1 27 1 40 3-3 3-7 3-11 5-3 0-3 3-3 5h24l-1-8v-1c13 0 27 2 40 4 9 2 19 3 28 7 2 1 5 2 6 4 0 3-4 4-6 6-13 4-27 6-40 8-35 4-71 6-106 8l-35 1c-69 2-137 2-206 0l-36-1-75-5c-21-2-43-4-63-10-4-1-10-2-12-6 1-5 7-5 10-7 9-3 19-4 28-6v6l-1 7h28c0-2-1-5-3-6l-12-4 2-1 1-5 1 1 40-3v-4l1 13h3l-1 9h28c0-2 0-4-2-6l-12-3 1-11 54-2 37-2h28a182 182 0 01-1 16h30c-1-2-1-5-3-6l-13-4z"/><path fill="#3c3e74" d="M316 343l11-1c4 3 9 3 13 5 3 1 5 3 4 6l-4 1-25-1 1-10z"/><g fill="#070534"><path d="M402 347l14-5 13 3v8h-30c0-2 1-5 3-6zM452 347l13-5 13 2 1 9h-31c1-2 1-5 4-6zM61 351h11l12 4c2 1 3 4 3 6H59a136 136 0 012-10z"/></g><path fill="#4263cc" d="M519 342l4 4h4l1 8h-24c0-2 0-5 3-5 4-2 8-2 11-5l1-2z"/></svg>
