<svg xmlns="http://www.w3.org/2000/svg" id="freepik_stories-security" class="animated" version="1.1" viewBox="0 0 500 500"><style>@keyframes zoomIn{0%{opacity:0;transform:scale(.5)}to{opacity:1;transform:scale(1)}}@keyframes zoomOut{0%{opacity:0;transform:scale(1.5)}to{opacity:1;transform:scale(1)}}@keyframes slideUp{0%{opacity:0;transform:translateY(30px)}to{opacity:1;transform:inherit}}@keyframes wind{0%{transform:rotate(0deg)}25%{transform:rotate(1deg)}75%{transform:rotate(-1deg)}}@keyframes lightSpeedLeft{60%{transform:skewX(-10deg);opacity:1}80%{transform:skewX(2deg)}}@keyframes floating{0%,to{opacity:1;transform:translateY(0)}50%{transform:translateY(-10px)}}@keyframes heartbeat{0%,30%,40%,60%,to{transform:scale(1)}10%,50%{transform:scale(1.1)}}@keyframes slideRight{0%{opacity:0;transform:translateX(30px)}to{opacity:1;transform:translateX(0)}}svg#freepik_stories-security:not(.animated) .animable{opacity:0}svg#freepik_stories-security.animated #freepik--shadow--inject-16{animation:1s 1 forwards cubic-bezier(.36,-.01,.5,1.38) zoomOut;animation-delay:.5s;opacity:0}svg#freepik_stories-security.animated #freepik--shield--inject-16{animation:1s 1 forwards cubic-bezier(.36,-.01,.5,1.38) slideUp;animation-delay:0s}</style><g id="freepik--Floor--inject-16" class="animable" style="transform-origin:250px 346.53px;animation:1s 1 forwards cubic-bezier(.36,-.01,.5,1.38) zoomIn;animation-delay:0s"><ellipse id="freepik--floor--inject-16" cx="250" cy="346.5" fill="#f5f5f5" rx="230.1" ry="132.8" style="transform-origin:250px 346.53px;animation:1s 1 forwards cubic-bezier(.36,-.01,.5,1.38) zoomIn;animation-delay:0s" class="animable"/></g><g id="freepik--Shadows--inject-16" class="animable" style="transform-origin:255.647px 342.016px;animation:1s 1 forwards cubic-bezier(.36,-.01,.5,1.38) zoomOut;animation-delay:0s"><ellipse id="freepik--Shadow--inject-16" cx="402.1" cy="373.5" fill="#e0e0e0" rx="57.5" ry="33.2" style="transform-origin:402.11px 373.46px;animation:1s 1 forwards cubic-bezier(.36,-.01,.5,1.38) zoomOut;animation-delay:0s" class="animable"/><path id="freepik--shadow--inject-16" d="M196 445L53 363c-2-2-2-4 0-5l207-119a9 9 0 018 0l143 82c2 2 2 4 0 5L205 445a9 9 0 01-9 0z" style="transform-origin:232.165px 342.016px" fill="#e0e0e0" class="animable"/></g><g id="freepik--Plant--inject-16" class="animable" style="transform-origin:454.616px 322.734px;animation:1s 1 forwards cubic-bezier(.36,-.01,.5,1.38) zoomOut;animation-delay:0s"><g id="freepik--Plants--inject-16" class="animable" style="transform-origin:454.616px 322.734px;animation:1s 1 forwards cubic-bezier(.36,-.01,.5,1.38) zoomOut;animation-delay:0s"><path d="M431 354c-1-8 2-40 9-52s19-25 30-24c9 2 10 14 0 24s-25 22-28 36l-8 25z" style="transform-origin:453.972px 320.434px" id="eld1inrc2klc7" fill="#ba68c8" class="animable"/><path d="M431 354c-1-8 2-40 9-52s19-25 30-24c9 2 10 14 0 24s-25 22-28 36l-8 25z" style="transform-origin:453.972px 320.434px" id="elwysmkh6npr" class="animable" opacity=".1"/><path d="M433 352a1 1 0 001-1c0-29 19-57 32-65a1 1 0 100-1c-14 8-33 36-33 66a1 1 0 000 1z" style="transform-origin:449.588px 318.504px" id="eliy39vawmvp" fill="#fff" class="animable"/><path d="M438 367c1-5 4-13 12-22 10-10 25-16 28-22 2-7-4-12-14-9-14 5-29 22-29 45z" style="transform-origin:456.56px 340.339px" id="el1lbjo209ksg" fill="#ba68c8" class="animable"/><path d="M435 363a1 1 0 001-1c5-26 26-40 35-42a1 1 0 000-1 1 1 0 00-1 0c-9 2-30 16-35 43a1 1 0 000 1z" style="transform-origin:452.794px 340.577px" id="elc2gyg41kkg4" fill="#fff" class="animable"/></g></g><g id="freepik--Clouds--inject-16" class="animable" style="transform-origin:97.1854px 78.6387px;animation:1s 1 forwards cubic-bezier(.36,-.01,.5,1.38) slideUp,1.5s Infinite linear wind;animation-delay:0s,-1s"><g id="freepik--clouds--inject-16" class="animable" style="transform-origin:97.1854px 78.6387px;animation:1s 1 forwards cubic-bezier(.36,-.01,.5,1.38) slideUp;animation-delay:0s"><path d="M146 74l-7 5a9 9 0 000-1v-2c0-4-3-6-6-4a12 12 0 00-4 4c-1-5-4-7-9-4-5 2-9 10-9 16v3a9 9 0 000 4l-6 3a8 8 0 00-3 6c0 2 1 3 3 2l41-24a8 8 0 004-6c0-2-2-3-4-2z" style="transform-origin:125.635px 88.4449px" id="elvyg3zn3ult" fill="#e6e6e6" class="animable"/><path d="M50 84l4-3v-9c0-8 6-16 13-20 6-3 11 0 11 7v1a16 16 0 015-5c5-3 9-1 9 5l6-3c3-2 5 0 5 3a12 12 0 01-5 9L50 97c-3 2-5 0-5-3a12 12 0 015-10z" style="transform-origin:73.83px 74.1222px" id="elzl2p1jh6dgc" fill="#e6e6e6" class="animable"/></g></g><g id="freepik--Device--inject-16" class="animable" style="transform-origin:227.827px 248.344px;animation:.5s 1 forwards cubic-bezier(.36,-.01,.5,1.38) lightSpeedLeft,1.5s Infinite linear floating;animation-delay:0s,.5s"><g id="freepik--Laptop--inject-16" class="animable" style="transform-origin:227.827px 248.344px;animation:.5s 1 forwards cubic-bezier(.36,-.01,.5,1.38) lightSpeedLeft;animation-delay:0s"><path d="M62 351a10 10 0 005 8l129 75a10 10 0 0010 0l191-111a9 9 0 000-15l-129-75a10 10 0 00-9 0L67 344a10 10 0 00-5 7z" style="transform-origin:232.162px 333.461px" id="el9il78tnc8rk" fill="#37474f" class="animable"/><path d="M201 425v10a9 9 0 01-5-1L67 359a9 9 0 01-1-15c-2 2-2 4 1 5l129 75a9 9 0 005 1z" style="transform-origin:131.611px 389.561px" id="el4qrtcie23w8" fill="#263238" class="animable"/><path d="M58 344a10 10 0 01-4-8V182a10 10 0 014-8L250 63a10 10 0 019 0 10 10 0 014 7v155a10 10 0 01-4 8L67 344a10 10 0 01-9 0z" style="transform-origin:158.48px 203.318px" id="el7h8jmbkknp5" fill="#455a64" class="animable"/><path d="M66 344a10 10 0 01-8 0 10 10 0 01-4-8V182a9 9 0 011-5l9 5a9 9 0 00-2 5v154c0 3 2 4 4 3z" style="transform-origin:59.925px 261.015px" id="elhgimsxqqvsh" fill="#263238" class="animable"/><path d="M62 187v154c0 3 2 4 5 3l192-111a10 10 0 004-8V70c0-2-2-4-4-2L67 179a10 10 0 00-5 8z" style="transform-origin:162.795px 205.827px" id="el4q72gng6jm8" fill="#37474f" class="animable"/><path d="M67 349l129 75a10 10 0 0010 0l191-111c3-1 3-4 0-5l-129-75a10 10 0 00-9 0L67 344c-3 1-3 4 0 5z" style="transform-origin:232.165px 328.456px" id="elojhzfcmxqji" fill="#455a64" class="animable"/><path d="M69 185L255 77c1 0 3 0 3 2v143a6 6 0 01-3 4L69 334c-1 0-2 0-2-2V189a6 6 0 012-4z" style="transform-origin:162.105px 205.49px" id="el1ox8k05dfts" fill="#ba68c8" class="animable"/><path d="M69 185L255 77c1 0 3 0 3 2v143a6 6 0 01-3 4L69 334c-1 0-2 0-2-2V189a6 6 0 012-4z" style="transform-origin:162.105px 205.49px" id="elqax2cvfes3s" class="animable" opacity=".4"/><path d="M82 345l179-103a5 5 0 015 0l8 5v2L95 353a5 5 0 01-5 0l-8-5v-3z" style="transform-origin:177.985px 297.185px" id="elcbpbjrw72a" fill="#37474f" class="animable"/><path d="M104 358l179-104a5 5 0 014 0l52 30v3L160 390a5 5 0 01-5 0l-51-30c-2 0-2-2 0-2z" style="transform-origin:221.327px 322.148px" id="el2y7n1ph6cql" fill="#263238" class="animable"/><path d="M261 298l6-3v-1l-6-3a1 1 0 00-1 0l-6 3v1l6 3a1 1 0 001 0zm-10-12l-5 3v1l6 3a1 1 0 001 0l5-3-6-4a1 1 0 00-1 0zm-18 11l-9 5v1l6 3 10-5v-1l-6-3a1 1 0 00-1 0zm10-6l-6 3v1l6 3a1 1 0 001 0l6-3v-1l-6-3a1 1 0 00-1 0zm-22 13l-6 3 6 4a1 1 0 001 0l6-3v-1l-6-3a1 1 0 00-1 0zm-8 4l-6 4 6 4a1 1 0 001 0l6-4-6-4a1 1 0 00-1 0zm23 14l6-3-6-4a1 1 0 00-1 0l-6 3v1l6 3a1 1 0 001 0zm-8 5l6-3v-1l-6-3a1 1 0 00-1 0l-6 3v1l6 3a1 1 0 001 0zm-8 5l5-3v-1l-6-3a1 1 0 00-1 0l-5 3v1l6 3a1 1 0 001 0zm-9 5l6-4-6-4a1 1 0 00-1 0l-5 4c-1 0-1 0 0 0l5 4a1 1 0 001 0zm42-34l5-3v-1l-6-3-6 3 6 4a1 1 0 001 0zm-9 15l13-8-15-8-7 3v1l8 4v1l-5 3c-1 0-1 0 0 0l6 4zm-40-5l-5 3v1l6 3a1 1 0 001 0l5-3-6-4a1 1 0 00-1 0zm-8 5l-5 3v1l6 3 6-3v-1l-6-3a1 1 0 00-1 0zm-43 52a1 1 0 001 0l5-3v-1l-6-3a1 1 0 00-1 0l-5 3v1zm-23-14l-5 3v1l6 3 6-3v-1l-6-3a1 1 0 00-1 0zm12 10a1 1 0 001 0l6-3-6-4a1 1 0 00-1 0l-6 3v1zm24 6l6-3-6-4a1 1 0 00-1 0l-5 3v1l6 3a1 1 0 001 0zm-9 5a1 1 0 001 0l6-3v-1l-6-3a1 1 0 00-1 0l-6 3 1 1zm-18-26l-6 3v1l6 3a1 1 0 001 0l5-3c1 0 1 0 0 0l-6-4zm41-24l-6 4 6 4a1 1 0 001 0l6-4-6-4a1 1 0 00-1 0zm-33 19l-6 4 6 4a1 1 0 001 0l6-4-6-4a1 1 0 00-1 0zm41-23l-6 3 6 4a1 1 0 001 0l6-3v-1l-6-3a1 1 0 00-1 0zm-16 9l-6 3v1l6 3a1 1 0 001 0l5-3c1 0 1 0 0 0l-6-4zm-9 5l-5 3v1l6 3 6-3v-1l-6-3a1 1 0 00-1 0zm-8 5l-6 3v1l6 3a1 1 0 001 0l6-3v-1l-6-3a1 1 0 00-1 0zm40 4l6-3v-1l-6-3a1 1 0 00-1 0l-6 3v1l6 3a1 1 0 001 0zm75-70l-6 3 6 4a1 1 0 001 0l5-3v-1l-6-3zm-10 5l-6 4 6 4a1 1 0 001 0l5-4c1 0 1 0 0 0l-6-4zm18-10l-6 3v1l6 3a1 1 0 001 0l6-3v-1l-6-3a1 1 0 00-1 0zm-44 43l5-3v-1l-6-3a1 1 0 00-1 0l-5 3v1l6 3a1 1 0 001 0zm53-48a1 1 0 00-1 0l-6 3v1l6 3a1 1 0 001 0l6-3zm-84 75l6-3-6-4a1 1 0 00-1 0l-6 4 6 3a1 1 0 001 0zm101-58l6-3v-1l-6-3a1 1 0 00-1 0l-6 3v1l6 3a1 1 0 001 0zm-17 0l6-3v-1l-6-3a1 1 0 00-1 0l-5 3v1l6 3zm8-12l-6 3v1l6 3a1 1 0 001 0l5-3v-1zm2-1l15 8 6-3-14-9a1 1 0 00-1 0l-6 4zm-19 11l-6 3 6 4a1 1 0 001 0l6-4-6-4a1 1 0 00-1 1zm-62 35l-6 4 6 4a1 1 0 001 0l6-4-6-4a1 1 0 00-1 0zm79-28a1 1 0 001 0l6-3v-1l-6-3a1 1 0 00-1 0l-6 3zm-71 24l-5 3c-1 0-1 0 0 0l6 4 6-4-6-3a1 1 0 00-1 0zm-63 53a1 1 0 001 0l6-3-6-4a1 1 0 00-1 0l-6 3v1zm-11-11l-6 4 6 4a1 1 0 001 0l6-4-6-4a1 1 0 00-1 0zm20 6l6-3-6-4a1 1 0 00-1 0l-6 4 6 3a1 1 0 001 0zm8-4l6-4-6-3a1 1 0 00-1 0l-5 3 5 4a1 1 0 001 0zm9-5l5-3v-1l-6-3a1 1 0 00-1 0l-5 3v1l6 3a1 1 0 001 0zm-29-1l-5 3c-1 0-1 0 0 0l6 4 6-3v-1l-6-3a1 1 0 00-1 0zm8-5l-5 3v1l6 3a1 1 0 001 0l5-3v-1l-6-3zm33-19l-5 3v1l6 3a1 1 0 001 0l5-3v-1l-6-3zm-8 5l-5 3c-1 0-1 0 0 0l6 4 6-3v-1l-6-3a1 1 0 00-1 0zm17-10l-6 3v1l6 3a1 1 0 001 0l6-3-6-4a1 1 0 00-1 0zm-33 19l-6 3v1l6 3a1 1 0 001 0l6-3-6-4a1 1 0 00-1 0zm8-5l-6 4 6 4a1 1 0 001 0l6-4-6-4a1 1 0 00-1 0zm-8 33l5-4-6-4-6 4 6 4a1 1 0 001 0zm-46-4l-6-3a1 1 0 00-1 0l-6 3v1l6 3a1 1 0 001 0l6-3v-1zm11 3l-6-3-9 5 6 4a1 1 0 001 0l8-5v-1zm-20-9l-6-4a1 1 0 00-1 0l-7 4v1l6 3a1 1 0 001 0l7-4zm5-4a1 1 0 001 0l6-3-6-4a1 1 0 00-1 0l-6 3v1zm26 17l-6-3a1 1 0 00-1 0l-11 6 6 4a1 1 0 001 0l11-6v-1zm5 7l-6-3a1 1 0 00-1 0l-7 4 6 4a1 1 0 001 0l7-4v-1zm30-59a1 1 0 001 0l6-3v-1l-6-3a1 1 0 00-1 0l-6 3v1zm-16 10a1 1 0 001 0l5-4h1l-6-4a1 1 0 00-1 0l-6 4zm-37 21a1 1 0 001 0l6-4-6-4a1 1 0 00-1 0l-6 4zm45-26a1 1 0 001 0l6-3v-1l-6-3a1 1 0 00-1 0l-6 3zm-16 9a1 1 0 001 0l5-3-6-4a1 1 0 00-1 0l-5 3v1zm-2 46a1 1 0 00-1 0l-9 5 6 4a1 1 0 001 0l9-5v-1zm-10-39a1 1 0 001 0l5-3v-1l-6-3-6 3v1zm-8 5a1 1 0 001 0l5-3v-1l-6-3a1 1 0 00-1 0l-5 3c-1 0-1 0 0 0zm171-55a1 1 0 00-1 0l-14 8v1l6 3a1 1 0 001 0l14-8zm-19 11l-6 3v1l6 3a1 1 0 001 0l5-3v-1zm-111 62l6-3v-1l-6-3a1 1 0 00-1 0l-6 3v1l6 3a1 1 0 001 0zm95-52a1 1 0 00-1 0l-6 3h1l5 4a1 1 0 001 0l6-4zm43-25a1 1 0 00-1 0l-6 3 6 4a1 1 0 001 0l6-3v-1zm14-2l-14-8a1 1 0 00-1 0l-6 3v1l15 8a1 1 0 001 0l5-3v-1zm-88 44a1 1 0 00-1 0l-7 4v1l6 3a1 1 0 001 0l7-4zm21-12a1 1 0 00-1 0l-9 5v1l6 3a1 1 0 001 0l9-5zm-40 23a1 1 0 00-1 0l-46 27v1l6 3a1 1 0 001 0l46-27zm-49 29a1 1 0 00-1 0l-7 4 6 4a1 1 0 001 0l7-4v-1zm59-34a1 1 0 00-1 0l-7 4 6 4a1 1 0 001 0l7-4v-1zm-68 39a1 1 0 00-1 0l-7 4v1l6 3a1 1 0 001 0l7-4zm87-50a1 1 0 00-1 0l-7 4 6 4a1 1 0 001 0l7-4v-1zm29-17a1 1 0 00-1 0l-5 3v1l6 3a1 1 0 001 0l5-3v-1zm19-13l5-3v-1l-6-3a1 1 0 00-1 0l-5 3c-1 0-1 0 0 0l6 4a1 1 0 001 0zm-36 1l6-4-6-4a1 1 0 00-1 0l-6 4 6 4a1 1 0 001-1zm-20 31l16-10-6-4-17 10 6 4a1 1 0 001 0zm46-27a1 1 0 001 0l6-4-6-4a1 1 0 00-1 0l-6 4zm-7-5l5-4c1 0 1 0 0 0l-6-4-6 4 6 4a1 1 0 001 0zm-47 37l5-4c1 0 1 0 0 0l-6-4-6 4 6 4a1 1 0 001 0zm36-22a1 1 0 001 0l6-3v-1l-6-3a1 1 0 00-1 0l-6 3v1zm-78 45l6-3-6-4a1 1 0 00-1 0l-5 3v1l6 3zm9-4l5-4c1 0 1 0 0 0l-6-4-6 4 6 4a1 1 0 001 0zm-17 9l6-3v-1l-6-3a1 1 0 00-1 0l-6 3v1l6 3a1 1 0 001 0zm33-19l6-3v-1l-6-3a1 1 0 00-1 0l-6 3v1l6 3a1 1 0 001 0zm-8 5l6-3v-1l-6-3a1 1 0 00-1 0l-6 3 6 4a1 1 0 001 0zm16-10l6-3-6-4a1 1 0 00-1 0l-5 3v1l6 3zm42-68a1 1 0 001 0l5-3v-1l-1-1a1 1 0 00-1 0l-6 4zm-41 26a1 1 0 001 0l6-3v-1l-6-3a1 1 0 00-1 0l-6 3v1zm17-9l6-4-6-4a1 1 0 00-1 0l-5 4zm-27 15a1 1 0 001 0l6-3v-1l-6-3a1 1 0 00-1 0l-6 3v1zm18-11a1 1 0 001 0l6-3-6-4a1 1 0 00-1 0l-6 3v1zm-34 20l6-3-6-4a1 1 0 00-1 0l-5 4c-1 0-1 0 0 0zm8-4a1 1 0 001 0l5-4s1 0 0 0l-6-4a1 1 0 00-1 0l-5 4zm42-27a1 1 0 001 0l6-4-2-1a1 1 0 00-1 0l-5 3v1zm25-15a1 1 0 001 0l6-3-2-1a1 1 0 00-1 0l-6 3zm13 7l6-3-6-4a1 1 0 00-1 0l-5 4c-1 0-1 0 0 0zm18 20l5-3v-1l-6-3-6 3v1l6 3a1 1 0 001 0zm-47-17l6-3v-1l-1-1a1 1 0 00-1 0l-6 3v1zm-68 41a1 1 0 001 0l6-3v-1l-6-3a1 1 0 00-1 0l-6 3v1z" style="transform-origin:220.551px 322.095px" id="elq3zglk4kas" fill="#455a64" class="animable"/><path d="M228 361l51-30a6 6 0 016 0l29 17c2 1 2 2 0 3l-51 30a6 6 0 01-5 0l-30-17v-3z" style="transform-origin:271.26px 356.014px" id="elzcaf0b9fto" fill="#263238" class="animable"/></g></g><g id="freepik--Shield--inject-16" class="animable animator-active" style="transform-origin:174.55px 218.109px;animation:1s 1 forwards cubic-bezier(.36,-.01,.5,1.38) slideUp,1.5s Infinite linear heartbeat;animation-delay:0s,2s"><g id="freepik--shield--inject-16" class="animable" style="transform-origin:174.55px 218.109px"><g id="freepik--shield--inject-16" class="animable" style="transform-origin:174.55px 218.109px"><path d="M220 138c-16 15-30 14-38 7-9 17-23 33-38 37l-10 25s5 5 5 19a67 67 0 01-2 16c-2 7-4 14-4 25 0 8 1 16 5 22a27 27 0 0010 10l-14-8a27 27 0 01-10-10c-4-7-5-14-5-22 0-11 2-18 4-25a67 67 0 002-16c0-14-5-19-5-19l9-25c16-4 30-21 38-37 9 6 23 7 39-7z" style="transform-origin:169.44px 214.715px" id="el95vg6sfl4nd" fill="#ba68c8" class="animable"/><path d="M172 140l-5-3a22 22 0 005 3z" style="transform-origin:169.92px 138.345px" id="elui79y7ilvfo" fill="#fff" class="animable" opacity=".8"/><path d="M206 130c-14 12-25 13-34 10l10 5c8 7 22 8 38-7z" style="transform-origin:196.15px 139.86px" id="elk6g8ahw4pe" fill="#fff" class="animable" opacity=".8"/><path d="M167 137c-8 16-22 33-38 37l15 8c15-4 29-20 38-37z" style="transform-origin:155.46px 159.605px" id="elptoewu4id5h" fill="#fff" class="animable" opacity=".7"/><path style="transform-origin:131.845px 190.44px" id="elql5olxrc1zh" fill="#fff" d="M129 174l-9 25 14 8 10-25-15-8z" class="animable" opacity=".6"/><path d="M138 289c-4-6-5-14-5-22 0-11 2-18 4-25a67 67 0 002-16c0-14-5-19-5-19l-14-8s5 5 5 19a67 67 0 01-2 16c-2 7-4 14-4 25 0 8 1 15 5 22a27 27 0 0010 10l14 8a27 27 0 01-10-10z" style="transform-origin:133.57px 249px" id="el5y15vs6xfr" fill="#fff" class="animable" opacity=".4"/><path d="M138 289c-4-6-5-14-5-22 0-11 2-18 4-25a67 67 0 002-16c0-14-5-19-5-19l-14-8s5 5 5 19a67 67 0 01-2 16c-2 7-4 14-4 25 0 8 1 15 5 22a27 27 0 0010 10l14 8a27 27 0 01-10-10z" style="transform-origin:133.57px 249px" id="ellafqx8w2ein" class="animable" opacity=".1"/><path d="M182 306c-24 1-38-6-44-17-4-6-5-14-5-22 0-11 2-18 4-25a67 67 0 002-16c0-14-5-19-5-19l10-25c15-4 29-20 38-37 8 7 22 8 38-7l9 14a69 69 0 00-5 25 40 40 0 002 14c2 5 4 9 4 20a82 82 0 01-5 28c-6 18-20 40-43 67z" style="transform-origin:181.705px 222.239px" id="elrit771j0ur" fill="#ba68c8" class="animable"/><path d="M182 306c-24 1-38-6-44-17-4-6-5-14-5-22 0-11 2-18 4-25a67 67 0 002-16c0-14-5-19-5-19l10-25c15-4 29-20 38-37 8 7 22 8 38-7l9 14a69 69 0 00-5 25 40 40 0 002 14c2 5 4 9 4 20a82 82 0 01-5 28c-6 18-20 40-43 67z" style="transform-origin:181.705px 222.239px" id="el6q5ugzf4asq" fill="#fff" class="animable" opacity=".8"/><path d="M179 300c-18 0-30-5-35-14-3-5-5-10-5-19a76 76 0 013-21l1-2a72 72 0 002-18c0-10-2-16-4-20l7-19c17-6 30-22 36-33a28 28 0 0011 2c8 0 16-3 23-9l4 6a76 76 0 00-4 24 46 46 0 003 16v2c2 4 3 7 3 16a76 76 0 01-5 26c-6 18-19 39-40 63z" style="transform-origin:181.705px 223.71px" id="elmtqn7zp6vz9" fill="#ba68c8" class="animable"/><path d="M179 300c-18 0-30-5-35-14-3-5-5-10-5-19a76 76 0 013-21l1-2a72 72 0 002-18c0-10-2-16-4-20l7-19c17-6 30-22 36-33a28 28 0 0011 2c8 0 16-3 23-9l4 6a76 76 0 00-4 24 46 46 0 003 16v2c2 4 3 7 3 16a76 76 0 01-5 26c-6 18-19 39-40 63z" style="transform-origin:181.705px 223.71px" id="eldlvk92pifrj" fill="#fff" class="animable" opacity=".4"/><path d="M179 300c-18 0-30-5-35-14-3-5-5-10-5-19a76 76 0 013-21l1-2a72 72 0 002-18c0-10-2-16-4-20l7-19c17-6 30-22 36-33a28 28 0 0011 2c8 0 16-3 23-9l4 6a76 76 0 00-4 24 46 46 0 003 16v2c2 4 3 7 3 16a76 76 0 01-5 26c-6 18-19 39-40 63z" style="transform-origin:181.705px 223.71px" id="el5nz1xr7uon6" class="animable" opacity=".1"/><path d="M148 291c6 6 16 9 31 9l-9-5a68 68 0 01-22-4z" style="transform-origin:163.34px 295.78px" id="el7lp769g0lam" fill="#fff" class="animable" opacity=".8"/><path style="transform-origin:219.21px 150.18px" id="el9mlnwowv8i" d="M217 150l5 3-4-6-2 2 1 1z" class="animable" opacity=".1"/><path d="M216 190a46 46 0 01-3-16 76 76 0 014-24l-1-1c-7 4-14 7-21 7a28 28 0 01-11-2c-6 11-19 27-36 33l-7 19c2 4 4 10 4 20a72 72 0 01-2 18l-1 2a76 76 0 00-3 21c0 9 2 14 5 19a21 21 0 006 7q9 4 24 4c21-24 34-45 41-63a76 76 0 004-25c0-9-1-13-3-17v-2z" style="transform-origin:179.305px 223.045px" id="elev70xjhcaab" fill="#455a64" class="animable"/><path d="M148 187l-7 19c2 4 4 10 4 20a72 72 0 01-2 18l-1 2a76 76 0 00-3 21c0 9 2 14 5 19a21 21 0 006 7q9 4 24 4v-69l10-3v-71a110 110 0 01-10 14c-7 8-15 16-26 19z" style="transform-origin:161.775px 225.46px" id="elw2ipcns364" fill="#37474f" class="animable"/></g><path id="freepik--shadow--inject-16" d="M198 202a4 4 0 00-1-1l-4-2a7 7 0 00-2-1 10 10 0 00-1 0v-10c0-5-2-9-5-10s-7-2-11 0c-7 4-12 14-12 23v12l-7 4a4 4 0 00-1 0 2 2 0 00-1 2v40a3 3 0 002 2l2 1 1 1a7 7 0 002 1 9 9 0 006-1l31-17a3 3 0 001-3v-40a2 2 0 000-1zm-30-1c0-6 4-14 9-17l5-1 2 5v12l-9 5-7 4z" style="transform-origin:175.855px 220.202px" fill="#263238" class="animable"/><g id="freepik--Padlock--inject-16" class="animable" style="transform-origin:179.304px 221.95px"><path d="M202 205a3 3 0 00-2-2l-3-2a9 9 0 00-8 0l-31 17a3 3 0 00-1 3v40a3 3 0 001 2l4 2a9 9 0 008 0l30-18a3 3 0 002-2v-40z" style="transform-origin:179.305px 232.86px" id="elfg6mrk7voja" fill="#ba68c8" class="animable"/><path d="M162 225l-4-2c-2-1-2-3 0-5l31-17a9 9 0 018 0l3 2c2 1 2 3 0 4l-30 18a9 9 0 01-8 0z" style="transform-origin:179.301px 212.911px" id="elhdaf6xs90w" fill="#fff" class="animable" opacity=".4"/><path d="M166 226v40a8 8 0 01-4-1l-4-2a3 3 0 01-1-2v-40a3 3 0 001 2l4 2a8 8 0 004 1z" style="transform-origin:161.295px 243.26px" id="elz2m6zm4az7" class="animable" opacity=".1"/><path d="M188 246l-7 4 1-13-2-3c0-3 2-7 4-8s4 0 4 3a10 10 0 01-1 5z" style="transform-origin:184.25px 237.762px" id="ely4c2zb3o4g" fill="#455a64" class="animable"/><path style="transform-origin:184.25px 245.88px" id="eleuuka3xil5" fill="#37474f" d="M188 246l-7-4v8l7-4z" class="animable"/><path d="M184 226a9 9 0 00-3 5l6 3a10 10 0 001-5c0-3-2-4-4-3z" style="transform-origin:184.535px 229.794px" id="el34sve9ktkbb" fill="#37474f" class="animable"/><path d="M194 206v-16c0-5-2-9-5-11s-7-1-11 1c-7 4-13 14-13 23v16a2 2 0 001 1 5 5 0 005 0 2 2 0 001-1v-16c0-7 4-14 9-17 2-1 3-2 4-1 2 1 2 3 2 5v16a2 2 0 001 1 5 5 0 005 0 2 2 0 001-1z" style="transform-origin:179.465px 199.371px" id="el4v54hep32t3" fill="#e0e0e0" class="animable"/></g></g></g><g id="freepik--Key--inject-16" class="animable" style="transform-origin:257.29px 284.037px;animation:2s 1 forwards cubic-bezier(.36,-.01,.5,1.38) slideRight;animation-delay:0s"><g id="freepik--key--inject-16" class="animable" style="transform-origin:257.29px 284.037px;animation:2s 1 forwards cubic-bezier(.36,-.01,.5,1.38) slideRight;animation-delay:0s"><path style="transform-origin:235.64px 273.88px" id="ellafmuha2nok" fill="#ba68c8" d="M233 276l4-2 2-2-5 2-1 2" class="animable"/><path style="transform-origin:235.64px 273.88px" id="elg4hk9rmy6uc" d="M233 276l4-2 2-2-5 2-1 2" class="animable" opacity=".4"/><path style="transform-origin:248.58px 280.22px" id="elglvffyr4k7m" fill="#ba68c8" d="M245 283l4-2 4-4-5 3-3 3" class="animable"/><path style="transform-origin:248.58px 280.22px" id="elzhfa8px4y3" d="M245 283l4-2 4-4-5 3-3 3" class="animable" opacity=".4"/><path d="M282 292a9 9 0 012 5 10 10 0 01-2-5zm10 0c-1-10-7-20-13-24-3-2-6-2-8 0l-5 2a4 4 0 000 1 8 8 0 00-1 0v1h-1a11 11 0 00-1 2l-37-20-4 2v3h1v1h-1v2l5 11 6 3 1-2 5 3 3 4 3 2 3-3 5 2 1 7 8 4a42 42 0 001 5c3 7 7 12 11 15a12 12 0 002 1 10 10 0 001 0 8 8 0 001 0 7 7 0 003 0h2v-1l4-2c3-2 6-7 6-14a36 36 0 00-1-5z" style="transform-origin:257.28px 284.037px" id="el9otafk57qg" fill="#ba68c8" class="animable"/><path d="M281 300c-2-1-3-4-3-6s1-4 3-3 3 4 3 6-2 4-3 3zm7-5c-2-11-7-20-14-24-3-2-5-2-8-1a4 4 0 000 1 8 8 0 00-1 0v1h-1a11 11 0 00-1 2 17 17 0 00-2 5l-39-23v3h1v1h-1v2l5 11 6 3 1-2 5 3 3 4 3 2 3-3 5 2 1 7 8 4a42 42 0 001 5c3 7 7 12 11 15a12 12 0 002 1 10 10 0 001 0 8 8 0 001 0 7 7 0 003 0h2c3-2 5-7 5-14a37 37 0 000-5z" style="transform-origin:255.09px 285.302px" id="elrh3qwc5mcsg" fill="#ba68c8" class="animable"/><path d="M284 297c0 3-2 4-3 3s-3-4-3-6 1-4 3-3a5 5 0 011 1 9 9 0 002 5z" style="transform-origin:280.673px 295.547px" id="el105xypef7spp" class="animable" opacity=".4"/><path d="M293 297c0 7-3 12-6 14l-4 3c3-2 5-7 5-14a37 37 0 000-5c-2-11-7-20-14-24-3-2-5-2-8-1l5-2c2-2 5-2 8 0 6 4 12 14 13 24a36 36 0 011 5z" style="transform-origin:279.51px 290.171px" id="ellpw2sakpjn" fill="#fff" class="animable" opacity=".4"/><path d="M288 300c0 7-2 12-5 14l4-3c3-2 6-7 6-14l-5 2v1z" style="transform-origin:287.76px 305.065px" id="el09q2xqdcwbl8" fill="#ba68c8" class="animable"/><path d="M288 300c0 7-2 12-5 14l4-3c3-2 6-7 6-14l-5 2v1z" style="transform-origin:287.76px 305.065px" id="els1ssxc722qn" class="animable" opacity=".1"/><path style="transform-origin:241.665px 271.135px" id="elo3vypa5315" d="M261 282v1l-39-23h1v-1l38 23z" class="animable" opacity=".1"/><path style="transform-origin:241.665px 271.43px" id="elygotgxrmen" d="M261 282v1l-39-23h1l38 22z" class="animable" opacity=".1"/><path d="M278 311a8 8 0 01-4-1c-6-4-11-15-11-25 0-5 1-10 4-11 2-2 5-1 8 0 6 4 11 15 11 25 0 5-1 10-5 11a6 6 0 01-3 1zm-8-38a5 5 0 00-2 1c-3 2-5 6-5 11 0 10 5 21 12 24 2 2 4 2 6 1 3-2 5-6 5-11 0-10-5-21-12-24a8 8 0 00-4-2z" style="transform-origin:274.43px 291.967px" id="el4rsh0enq1hn" class="animable" opacity=".1"/><path d="M263 274a17 17 0 00-2 5l-39-23 4-2z" style="transform-origin:242.29px 266.105px" id="elh33r91cuq1r" fill="#fff" class="animable" opacity=".5"/></g></g><g id="freepik--Character--inject-16" class="animable" style="transform-origin:404.277px 235.604px;animation:1.8s 1 forwards cubic-bezier(.36,-.01,.5,1.38) slideRight;animation-delay:0s"><g id="freepik--character--inject-16" class="animable" style="transform-origin:404.277px 235.604px;animation:1.8s 1 forwards cubic-bezier(.36,-.01,.5,1.38) slideRight;animation-delay:0s"><path d="M412 385c0 1 0 5 7 6s12-1 14-5 1-6 1-9 3-4 4-6-1-6-1-6z" style="transform-origin:425.099px 378.165px" id="elzpq6b9v71al" fill="#263238" class="animable"/><path d="M361 374a4 4 0 001 3 15 15 0 0011 4 27 27 0 0012-5 16 16 0 019-3l6-1-1-3z" style="transform-origin:380.527px 374.84px" id="elxwf2m3kodze" fill="#263238" class="animable"/><path d="M436 360c-1 6-14 5-13 0l-2-15h14z" style="transform-origin:428.475px 354.594px" id="eljr2hojsmbxm" fill="#ffa8a7" class="animable"/><path d="M412 382l4-4a34 34 0 007-18v-2l1 1a8 8 0 003 0h5l1 3 2-2 1-1v-1l1 4c1 2 2 4 1 7a18 18 0 01-2 3 14 14 0 00-3 6v3a9 9 0 01-6 7c-4 1-11 1-14-2-2-1-1-3-1-4z" style="transform-origin:425.022px 373.288px" id="ele35h4zddh7d" fill="#37474f" class="animable"/><path d="M397 359c-4 2-8 4-12 2l-1-26 14 2z" style="transform-origin:391.03px 348.244px" id="elmbso0vucmhf" fill="#ffa8a7" class="animable"/><path d="M364 370l3-1a51 51 0 007-4l3-2 3-2a10 10 0 001-2 16 16 0 003-3 1 1 0 010-1 1 1 0 011 0 5 5 0 001 1h1a10 10 0 002 1c4 0 4-1 4 1a8 8 0 010 1l4-2v-2c2 0 2 3 2 7 1 3 2 5 1 7-3 3-8 2-11 3-4 0-6 3-11 5-9 3-15 0-17-2-1-2-1-4 3-5z" style="transform-origin:380.476px 366.67px" id="elgwrx5zzdfem" fill="#37474f" class="animable"/><path d="M432 205l2 40 1 51a82 82 0 012 15l1 50s-7 6-16 1l-11-63-6-43-2 41a63 63 0 011 19l-4 42c-4 3-15 2-17-1l-4-59c-1-15-3-75-2-84s55-9 55-9z" style="transform-origin:407.12px 284.695px" id="elapkkqfkizk" fill="#263238" class="animable"/><path id="elzyua9jw3b6q" d="M405 256l-3-18s-8-2-13-6c0 0 2 5 10 9l3 17 1 39z" class="animable" style="transform-origin:396.605px 264.56px"/><path d="M420 131c1 3 4 2 6 2a4 4 0 003-4 4 4 0 002-2 3 3 0 000-3 4 4 0 002-4 5 5 0 00-2-3 5 5 0 00-3-1v1a5 5 0 012 1 4 4 0 012 2 3 3 0 01-2 3 4 4 0 00-3-1 2 2 0 00-1 1l1 1a4 4 0 003 1c1 1 0 2-1 3-1-2-3-3-5-2a1 1 0 000 2 3 3 0 002 1 8 8 0 002 0 3 3 0 01-1 2 4 4 0 01-3 1 5 5 0 01-3-1h-1zm9-7a2 2 0 01-2-1s-1 0 0 0a3 3 0 012 1zm-2 4a5 5 0 01-1 0l-1-1h2a3 3 0 010 1z" style="transform-origin:426.481px 124.563px" id="el8948m25lgct" fill="#263238" class="animable"/><path d="M423 93a3 3 0 012-3 3 3 0 014 1l-5 2a6 6 0 014 3c1 3 0 8-2 15a94 94 0 01-4 12l-2 2v-12s-3-5-4-9l1-7z" style="transform-origin:422.667px 107.319px" id="elvjj8o6zd8e" fill="#263238" class="animable"/><path d="M398 87a11 11 0 11-11 11 11 11 0 0111-11z" style="transform-origin:397.98px 98.3px" id="elog36ccknk7" fill="#263238" class="animable"/><path d="M420 112c2 1 3-2 4-3s5-3 6 1-1 10-4 11c-4 2-6-2-6-2v16c-4 8-13 6-18 7a10 10 0 010-6v-5a20 20 0 01-5 0c-4 0-6-3-7-7-2-7-2-17 0-30 5-3 18-2 27 3-1 11 2 14 3 15z" style="transform-origin:409.802px 117.321px" id="elyhufdupjj3t" fill="#ffa8a7" class="animable"/><path d="M402 131l11-3a9 9 0 004-4 13 13 0 01-2 4c-2 3-13 5-13 5z" style="transform-origin:409.91px 128.485px" id="elbzd65evlo0s" fill="#f28f8f" class="animable"/><path d="M385 106a3 3 0 001 1 2 2 0 010 1 31 31 0 001 5 5 5 0 005 3 8 8 0 002 0 5 5 0 001 0v-1h1a7 7 0 001-2l2-4h1l2 4a6 6 0 006 4h2a6 6 0 001-1 6 6 0 001 0 5 5 0 001-2 28 28 0 001-5 3 3 0 001-2 1 1 0 00-1-2h-9l-5 2-5-2a23 23 0 00-9-1l-1 2zm18 2a2 2 0 011-1h1a10 10 0 011-1h2l5 1v4a3 3 0 01-1 1v2a4 4 0 01-4 2 5 5 0 01-4-2 5 5 0 01-1-3v-3zm-16-2a2 2 0 011 0h2a3 3 0 011 0 11 11 0 011 0l4 2v3a7 7 0 010 1v1a4 4 0 01-4 2 5 5 0 01-2 0l-3-4v-5z" style="transform-origin:400.081px 110.502px" id="eld52xiifoxwc" fill="#263238" class="animable"/><path d="M414 105l12 3a5 5 0 00-3 2l-9-2z" style="transform-origin:420.095px 107.53px" id="el9z1g2wl03ce" fill="#263238" class="animable"/><path d="M387 110l3 4a5 5 0 002 1 4 4 0 004-2v-1a7 7 0 000-1v-4l-4-2a11 11 0 00-1 0 3 3 0 00-1 0h-2a2 2 0 00-1 1v4z" style="transform-origin:391.897px 110.091px" id="elhkr2lbofxnl" fill="#37474f" class="animable"/><path d="M403 111a5 5 0 001 3 5 5 0 004 2 4 4 0 004-2v-1-1l1-1v-4l-5-1h-1-1a10 10 0 00-1 1h-1a2 2 0 00-1 1v3z" style="transform-origin:407.659px 110.829px" id="elxkcf1dmlzjq" fill="#37474f" class="animable"/><path d="M388 86v-1a1 1 0 010-1l2 2a15 15 0 001 1 9 9 0 011 0 12 12 0 010-4l2-3 2 1c4 4 10 2 15 2s10 2 12 7v5l-3 2-1 5a5 5 0 01-5-4l-1-1a1 1 0 00-1-1l-3 1a26 26 0 01-12 1 13 13 0 01-7-4 11 11 0 01-2-8z" style="transform-origin:405.774px 90.8461px" id="el4qlliemzfuy" fill="#263238" class="animable"/><path d="M405 103l4 1a2 2 0 00-1-3 2 2 0 00-3 2z" style="transform-origin:407.289px 102.524px" id="elj2d14qekjkr" fill="#263238" class="animable"/><path d="M404 121l-3 1a2 2 0 002 2 2 2 0 001-3z" style="transform-origin:402.719px 122.575px" id="elhbd85zsuesa" fill="#f28f8f" class="animable"/><path d="M390 103h4a2 2 0 00-2-2 2 2 0 00-2 2z" style="transform-origin:392.297px 102.189px" id="elne89ky8r9eo" fill="#263238" class="animable"/><path d="M400 109l-1 9-5-1 5-8a1 1 0 011 0z" style="transform-origin:397.13px 113.43px" id="elzl5sc1d4qi" fill="#f28f8f" class="animable"/><path d="M422 115a2 2 0 103-2 2 2 0 00-3 2z" style="transform-origin:424.78px 115.31px" id="elndmj0y49qzn" fill="#263238" class="animable"/><path d="M422 111a5 5 0 011-2 2 2 0 012-1l-1 1a3 3 0 00-1 1 3 3 0 000 1 3 3 0 000 2 3 3 0 001 0 3 3 0 010 1l-1 1a3 3 0 01-1-2 3 3 0 010-2z" style="transform-origin:423.519px 111.477px" id="elmejkau1va1j" fill="#263238" class="animable"/><path d="M387 144c-3 2-8 5-9 8l-5 27a30 30 0 0010 3z" style="transform-origin:380.43px 163.09px" id="elrpo1be42zuh" fill="#455a64" class="animable"/><path d="M427 135c9 5 17 12 19 15 0 0-5 17-9 24s-7 32-7 32-30 10-40 11-10-4-10-4 0-26 2-43 1-23 5-26l14-7v5c6 0 26-7 26-7z" style="transform-origin:412.948px 176.016px" id="eludkq0fyi04" fill="#37474f" class="animable"/><path d="M399 145a7 7 0 01-1-4l3-1v3z" style="transform-origin:399.451px 142.265px" id="elvak1vfm1bw" fill="#ba68c8" class="animable"/><path d="M399 145a7 7 0 01-1-4l3-1v3z" style="transform-origin:399.451px 142.265px" id="el2bfxzli330w" class="animable" opacity=".3"/><path style="transform-origin:409.46px 143.345px" id="el7kpo10yd02m" fill="#ba68c8" d="M404 143l6-4 5 4-10 4-1-4z" class="animable"/><path style="transform-origin:409.46px 143.345px" id="el1zdgrho9zlt" d="M404 143l6-4 5 4-10 4-1-4z" class="animable" opacity=".3"/><path d="M420 128v2c0 1-3 4-9 7l-9 5a16 16 0 015 1l9 5 7-8 4-5s-4-7-7-7z" style="transform-origin:414.875px 138.075px" id="elseif81x7s1" fill="#455a64" class="animable"/><path d="M402 142c-2 1-4 2-5 1s2-8 5-10z" style="transform-origin:399.898px 138.141px" id="elroaz4nzplds" fill="#455a64" class="animable"/><path d="M381 182l-1 6 3 29-10 4-1-16a96 96 0 011-18l1-7a35 35 0 007 2z" style="transform-origin:377.334px 200.325px" id="ell6ydydemoaa" fill="#f28f8f" class="animable"/><path d="M374 234v2a36 36 0 002 8c0 2 2 5 3 5a4 4 0 002 1h4a9 9 0 012-1h3l1-2h2a3 3 0 002-2l-1-4a4 4 0 001-2 19 19 0 00-1-5l-7-5-1-1a12 12 0 00-8 1c-4 3-4 5-4 5z" style="transform-origin:384.617px 238.91px" id="elxf6p2x0kmnc" fill="#ffa8a7" class="animable"/><path d="M376 234c-2 3-1 9-1 9a34 34 0 01-1-7v-2s0-2 4-5a12 12 0 018-1s-8 3-10 6z" style="transform-origin:380.035px 235.297px" id="elwbtpbj84teq" fill="#f28f8f" class="animable"/><path d="M394 241a17 17 0 00-3-5v-2h2v2c-1 1 0 1 1 2a12 12 0 010 3z" style="transform-origin:392.404px 237.711px" id="elfzos718y2u" fill="#f28f8f" class="animable"/><path d="M444 150c2 1 3 9 2 16s-6 24-8 29l-7 13c-2 3-5 3-10 6l-16 6-14 4-4 5-1-1a29 29 0 00-9 4 12 12 0 00-3 2v2s-2 1-4-3-3-9 0-12 9-6 14-8l15-7 15-9 2-4 3-11c1-7 4-29 25-32z" style="transform-origin:407.372px 193.362px" id="elk1zck8vq6a" fill="#ffa8a7" class="animable"/><path d="M446 150s2 0 2 6a85 85 0 01-1 15l-5 17s-12 4-25-1l4-23c1-5 17-19 25-14z" style="transform-origin:432.433px 169.243px" id="el6isqrwgyk1b" fill="#455a64" class="animable"/><path d="M403 150l-2 30c0 4-5 12-7 12s-3-8-4-12c1-10 7-25 10-30z" style="transform-origin:396.62px 170.586px" id="elpr9d0r5yc7" fill="#ba68c8" class="animable"/><path d="M399 150a4 4 0 011 0h3v2a5 5 0 01-4-2z" style="transform-origin:401.085px 150.58px" id="eli9a9lari68" class="animable" opacity=".1"/><path d="M404 143a14 14 0 00-3 0 7 7 0 00-2 2 11 11 0 001 5 4 4 0 003 0 7 7 0 002-3 6 6 0 00-1-4z" style="transform-origin:402.035px 146.518px" id="elgl8m1xvess6" fill="#ba68c8" class="animable"/></g></g><defs><filter id="active" height="200%"><feMorphology in="SourceAlpha" operator="dilate" radius="2" result="DILATED"/><feFlood flood-color="#32DFEC" flood-opacity="1" result="PINK"/><feComposite in="PINK" in2="DILATED" operator="in" result="OUTLINE"/><feMerge><feMergeNode in="OUTLINE"/><feMergeNode in="SourceGraphic"/></feMerge></filter><filter id="hover" height="200%"><feMorphology in="SourceAlpha" operator="dilate" radius="2" result="DILATED"/><feFlood flood-color="red" flood-opacity=".5" result="PINK"/><feComposite in="PINK" in2="DILATED" operator="in" result="OUTLINE"/><feMerge><feMergeNode in="OUTLINE"/><feMergeNode in="SourceGraphic"/></feMerge><feColorMatrix values="0 0 0 0 0 0 1 0 0 0 0 0 0 0 0 0 0 0 1 0"/></filter></defs></svg>
